<svg width="133" height="40" viewBox="0 0 133 40" fill="none" xmlns="http://www.w3.org/2000/svg">
<path d="M118.824 34.2649H120.42V28.1297H118.824V34.2649ZM114.782 28.1297H113.187V34.2686C113.474 34.2944 113.787 34.3128 114.126 34.3312C114.465 34.3496 114.867 34.357 115.335 34.357C115.851 34.357 116.286 34.3091 116.636 34.217C116.989 34.1249 117.273 33.9848 117.494 33.8006C117.715 33.6164 117.874 33.3842 117.973 33.1078C118.073 32.8278 118.121 32.5072 118.121 32.1387C118.121 31.8697 118.084 31.6155 118.01 31.3833C117.936 31.1512 117.815 30.9485 117.642 30.7754C117.472 30.6022 117.244 30.4695 116.967 30.3774C116.687 30.2816 116.341 30.2374 115.924 30.2374C115.762 30.2374 115.578 30.2447 115.379 30.2558C115.18 30.2705 114.981 30.289 114.782 30.3221V28.1297ZM114.782 31.4534C115.003 31.3944 115.246 31.3686 115.519 31.3686C115.862 31.3686 116.109 31.4349 116.256 31.5713C116.404 31.7039 116.477 31.9066 116.477 32.1682C116.477 32.4556 116.404 32.6657 116.256 32.802C116.109 32.9347 115.851 33.0047 115.482 33.0047C115.261 33.0047 115.029 32.9789 114.782 32.931V31.4534ZM108.547 30.6316V29.342C108.636 29.3346 108.739 29.3272 108.846 29.3162C108.956 29.3088 109.108 29.3051 109.295 29.3051C109.671 29.3051 109.933 29.3604 110.073 29.4709C110.217 29.5815 110.287 29.7436 110.287 29.9573C110.287 30.1526 110.202 30.3148 110.036 30.4437C109.87 30.5727 109.653 30.6353 109.391 30.6353H108.547V30.6316ZM108.547 31.6155H109.369C109.778 31.6155 110.062 31.6818 110.224 31.8182C110.386 31.9545 110.464 32.1277 110.464 32.3414C110.464 32.5957 110.368 32.7836 110.18 32.9052C109.992 33.0268 109.675 33.0894 109.237 33.0894C109.089 33.0894 108.968 33.0857 108.868 33.0784C108.769 33.071 108.665 33.0563 108.551 33.0415V31.6155H108.547ZM106.989 34.2538C107.276 34.287 107.612 34.3128 107.995 34.3349C108.378 34.3533 108.743 34.3644 109.089 34.3644C110.128 34.3644 110.884 34.2133 111.355 33.9111C111.827 33.609 112.059 33.1521 112.059 32.5367C112.059 32.1424 111.96 31.8218 111.764 31.575C111.569 31.3244 111.248 31.1512 110.806 31.0517V31.0038C111.16 30.8822 111.414 30.6832 111.58 30.4142C111.746 30.1453 111.827 29.8652 111.827 29.5778C111.827 29.0619 111.635 28.675 111.256 28.4171C110.876 28.1591 110.235 28.0302 109.336 28.0302C108.868 28.0302 108.433 28.0412 108.028 28.067C107.623 28.0928 107.276 28.1149 106.992 28.1407V34.2538H106.989ZM104.509 34.2649H106.337L104.678 31.4055L103.989 30.9264L104.616 30.4621L106.101 28.1297H104.395L102.958 30.5727L102.578 30.7422V28.126H100.983V34.2649H102.578V31.7224H103.009L104.509 34.2649ZM99.6449 32.6694C99.4976 32.7688 99.3317 32.8499 99.1438 32.9199C98.9559 32.9899 98.7274 33.0231 98.4547 33.0231C98.2115 33.0231 97.9941 32.9752 97.8099 32.8831C97.6257 32.7873 97.4783 32.6583 97.3604 32.4962C97.2461 32.3304 97.1614 32.1387 97.1024 31.9177C97.0435 31.6966 97.0177 31.457 97.0177 31.1917C97.0177 30.5543 97.1319 30.09 97.3604 29.7989C97.5888 29.5078 97.9241 29.3641 98.3663 29.3641C98.6058 29.3641 98.8159 29.3899 99.0001 29.4378C99.1843 29.4857 99.3686 29.5557 99.5602 29.6441L99.9397 28.3434C99.7186 28.2291 99.4718 28.1333 99.1991 28.0596C98.9264 27.9859 98.5616 27.9491 98.1121 27.9491C97.2203 27.9491 96.5423 28.2291 96.0744 28.7892C95.6064 29.3493 95.3742 30.1489 95.3742 31.1881C95.3742 31.6708 95.4221 32.1129 95.5143 32.5146C95.6101 32.9162 95.7611 33.2589 95.9749 33.539C96.1886 33.8227 96.4649 34.0401 96.8039 34.1949C97.1429 34.3496 97.5593 34.427 98.0494 34.427C98.4179 34.427 98.7753 34.3791 99.1217 34.287C99.4718 34.1912 99.7665 34.0548 100.013 33.8743L99.6449 32.6694ZM90.7608 29.7473C90.9819 29.4525 91.2878 29.3051 91.682 29.3051C92.1316 29.3051 92.4522 29.4783 92.6401 29.8284C92.828 30.1747 92.9238 30.6316 92.9238 31.1954C92.9238 31.8513 92.8207 32.3303 92.618 32.6325C92.4116 32.9347 92.1021 33.0857 91.6857 33.0857C91.4646 33.0857 91.273 33.0378 91.1146 32.9457C90.9561 32.8499 90.8272 32.7173 90.7277 32.5478C90.6282 32.3746 90.5582 32.1756 90.5066 31.9471C90.4587 31.7187 90.4329 31.4681 90.4329 31.1991C90.4292 30.5248 90.5397 30.0421 90.7608 29.7473ZM88.959 32.522C89.0769 32.9236 89.2574 33.2663 89.5006 33.5463C89.7401 33.8301 90.0423 34.0475 90.4034 34.2022C90.7645 34.357 91.1883 34.4344 91.6784 34.4344C92.5959 34.4344 93.3034 34.1543 93.8082 33.5942C94.3093 33.0342 94.5636 32.2345 94.5636 31.1954C94.5636 30.7127 94.5046 30.2705 94.3867 29.8689C94.2688 29.4672 94.0882 29.1246 93.8524 28.8445C93.6166 28.5608 93.3181 28.3434 92.957 28.1849C92.5959 28.0302 92.1721 27.9528 91.682 27.9528C90.7645 27.9528 90.0533 28.2328 89.5448 28.7929C89.0363 29.353 88.7821 30.1526 88.7821 31.1917C88.7821 31.6781 88.8447 32.1203 88.959 32.522ZM85.9595 34.2649H87.6398V25.6719H86.118L83.9439 29.5741L83.5754 30.5801H83.5275L83.1222 29.5999L80.8266 25.6719H79.2937V34.2649H80.8892V29.7989L80.6423 28.1039H80.705L81.2466 29.4672L83.1738 32.6841H83.7155L85.5431 29.482L86.0701 28.1075H86.1438L85.9595 29.8136V34.2649ZM71.4929 32.861C71.3602 32.7357 71.2902 32.5551 71.2902 32.3267C71.2902 32.1608 71.3418 32.0282 71.4487 31.9213C71.5555 31.8145 71.6993 31.7334 71.8798 31.6745C72.0604 31.6192 72.2667 31.5823 72.4989 31.5639C72.731 31.5492 72.9742 31.5529 73.2284 31.575V32.3709C73.1363 32.5367 73 32.6878 72.8121 32.8315C72.6241 32.9752 72.3699 33.0452 72.0493 33.0452C71.8135 33.0489 71.6292 32.9862 71.4929 32.861ZM70.4059 29.6736C70.6343 29.5667 70.9291 29.482 71.2829 29.4157C71.6403 29.3493 71.9756 29.3162 72.2962 29.3162C72.7199 29.3162 72.9963 29.4157 73.1179 29.6146C73.2395 29.8136 73.2727 30.1453 73.2174 30.6022C72.6794 30.5764 72.1893 30.5948 71.7508 30.6574C71.3123 30.7201 70.9365 30.8306 70.6233 30.9891C70.3064 31.1475 70.0669 31.3576 69.8974 31.6155C69.7279 31.8734 69.6468 32.1903 69.6468 32.5662C69.6468 32.8352 69.691 33.0784 69.7795 33.2958C69.8716 33.5132 69.9969 33.7011 70.159 33.8596C70.3211 34.018 70.5201 34.1433 70.7486 34.228C70.977 34.3128 71.235 34.357 71.5224 34.357C71.9793 34.357 72.3551 34.2649 72.6462 34.0806C72.9373 33.8964 73.1621 33.679 73.3279 33.4247H73.3906L73.6485 34.2723H74.9493C74.8498 33.9775 74.7908 33.6643 74.765 33.3326C74.7392 33.001 74.7319 32.6583 74.7319 32.3082C74.7355 31.9545 74.7503 31.5971 74.7761 31.236C74.8019 30.8712 74.8129 30.51 74.8129 30.1489C74.8129 29.821 74.7798 29.5262 74.7097 29.2646C74.6397 29.003 74.5218 28.7782 74.3523 28.5903C74.1828 28.4023 73.958 28.2549 73.6706 28.1554C73.3832 28.056 73.0295 28.0007 72.602 28.0007C72.1119 28.0007 71.6403 28.0449 71.1907 28.1297C70.7412 28.2144 70.3506 28.3323 70.0227 28.4797L70.4059 29.6736ZM64.687 32.9273C64.7865 32.7467 64.875 32.522 64.956 32.253C65.0371 31.984 65.1108 31.6929 65.1697 31.3833C65.2324 31.0738 65.284 30.7532 65.3245 30.4216C65.365 30.09 65.3945 29.7768 65.4093 29.482H66.6989V32.931H64.687V32.9273ZM69.1899 32.8536H68.2945V28.1297H64.0201C64.0201 28.8924 63.9832 29.552 63.9095 30.1047C63.8358 30.6611 63.7474 31.1291 63.6442 31.505C63.5411 31.8808 63.4416 32.1793 63.3384 32.3967C63.2352 32.6141 63.1505 32.7652 63.0878 32.8573H62.3619V35.6688H63.5263L63.7106 34.2686H67.8376L68.0218 35.6688H69.1862V32.8536H69.1899ZM58.1796 29.7473C58.4007 29.4525 58.7066 29.3051 59.1008 29.3051C59.5504 29.3051 59.8673 29.4783 60.0589 29.8284C60.2468 30.1747 60.3426 30.6316 60.3426 31.1954C60.3426 31.8513 60.2394 32.3303 60.0368 32.6325C59.8341 32.9347 59.5209 33.0857 59.1045 33.0857C58.8834 33.0857 58.6918 33.0378 58.5334 32.9457C58.3749 32.8499 58.246 32.7173 58.1465 32.5478C58.047 32.3746 57.977 32.1756 57.9254 31.9471C57.8775 31.7187 57.8517 31.4681 57.8517 31.1991C57.848 30.5248 57.9585 30.0421 58.1796 29.7473ZM56.3814 32.522C56.4994 32.9236 56.6799 33.2663 56.9194 33.5463C57.1626 33.8301 57.4611 34.0475 57.8222 34.2022C58.1833 34.357 58.6071 34.4344 59.1008 34.4344C60.0184 34.4344 60.7258 34.1543 61.2307 33.5942C61.7355 33.0342 61.9861 32.2345 61.9861 31.1954C61.9861 30.7127 61.9271 30.2705 61.8092 29.8689C61.6913 29.4672 61.5107 29.1246 61.2749 28.8445C61.0391 28.5608 60.7406 28.3434 60.3795 28.1849C60.0184 28.0302 59.5946 27.9528 59.1045 27.9528C58.187 27.9528 57.4758 28.2328 56.9673 28.7929C56.4588 29.353 56.2046 30.1526 56.2046 31.1917C56.2046 31.6781 56.2635 32.1203 56.3814 32.522ZM53.4778 29.7473C53.6584 30.0421 53.7468 30.4585 53.7468 31.0001C53.7468 31.7445 53.6326 32.2788 53.4041 32.603C53.1756 32.9273 52.8293 33.0894 52.3724 33.0894C52.1513 33.0894 51.9744 33.0636 51.8381 33.0084C51.7054 32.9568 51.5764 32.8831 51.4622 32.7946V30.2411C51.5617 29.9315 51.698 29.6994 51.8749 29.5409C52.0518 29.3862 52.295 29.3088 52.6045 29.3088C53.0061 29.3051 53.2972 29.4525 53.4778 29.7473ZM49.8704 36.7227H51.4659V34.2059C51.6317 34.287 51.7938 34.3459 51.956 34.3828C52.1218 34.4196 52.3281 34.4381 52.5824 34.4381C53.0319 34.4381 53.4299 34.3607 53.78 34.2059C54.1263 34.0512 54.4211 33.8264 54.6643 33.5316C54.9038 33.2368 55.0881 32.8794 55.2097 32.4593C55.3313 32.0393 55.3939 31.5639 55.3939 31.0407C55.3939 29.961 55.2023 29.1761 54.8154 28.6897C54.4322 28.2033 53.8537 27.9601 53.0835 27.9601C52.6671 27.9601 52.3134 28.0338 52.0223 28.1812C51.7312 28.3286 51.4806 28.5571 51.2669 28.8703H51.219L51.0348 28.1333H49.8704V36.7227ZM44.9585 29.7473C45.1796 29.4525 45.4854 29.3051 45.8797 29.3051C46.3292 29.3051 46.6498 29.4783 46.8378 29.8284C47.0257 30.1784 47.1215 30.6316 47.1215 31.1954C47.1215 31.8513 47.0183 32.3303 46.8156 32.6325C46.6093 32.9347 46.2998 33.0857 45.8834 33.0857C45.6623 33.0857 45.4707 33.0378 45.3122 32.9457C45.1538 32.8499 45.0248 32.7173 44.9253 32.5478C44.8258 32.3746 44.7558 32.1756 44.7042 31.9471C44.6527 31.7187 44.6305 31.4681 44.6305 31.1991C44.6269 30.5248 44.7374 30.0421 44.9585 29.7473ZM43.1603 32.522C43.2782 32.9236 43.4588 33.2663 43.702 33.5463C43.9415 33.8301 44.2436 34.0475 44.6047 34.2022C44.9659 34.357 45.3896 34.4344 45.8797 34.4344C46.7972 34.4344 47.5047 34.1543 48.0095 33.5942C48.5143 33.0342 48.7649 32.2345 48.7649 31.1954C48.7649 30.7127 48.706 30.2705 48.588 29.8689C48.4701 29.4672 48.2896 29.1246 48.0537 28.8445C47.8179 28.5608 47.5194 28.3434 47.1583 28.1849C46.7972 28.0302 46.3735 27.9528 45.8834 27.9528C44.9659 27.9528 44.2547 28.2328 43.7462 28.7929C43.2377 29.353 42.9834 30.1526 42.9834 31.1917C42.9834 31.6781 43.0424 32.1203 43.1603 32.522ZM42.7255 28.1297H38.7606V34.2686H40.4041V29.5409H42.7255V28.1297Z" fill="#9CC035"/>
<path d="M130.962 19.6255C130.528 19.6329 130.2 19.5629 129.975 19.4192C129.75 19.2718 129.636 19.0433 129.636 18.7301C129.636 18.4206 129.739 18.1848 129.942 18.03C130.144 17.8752 130.432 17.7979 130.8 17.7979C130.9 17.7979 130.999 17.8052 131.106 17.8237C131.213 17.8421 131.312 17.8679 131.401 17.9084V19.6034L130.962 19.6255ZM131.405 22.7576H133V16.6445C132.746 16.5966 132.447 16.5487 132.108 16.5119C131.769 16.4713 131.401 16.4492 131.01 16.4492C129.986 16.4492 129.227 16.6261 128.733 16.9761C128.236 17.3262 127.989 17.8752 127.989 18.6196C127.989 19.0949 128.118 19.4892 128.383 19.8061C128.645 20.123 128.976 20.3109 129.378 20.3772L128.777 20.8305L127.587 22.7576H129.488L130.668 20.5836L131.405 20.4362V22.7576ZM125.166 22.7576H126.762V16.6187H125.756L123.545 19.5039L123.04 20.3736H122.992L123.066 19.5408V16.6187H121.47V22.7576H122.476L124.661 19.983L125.188 19.0876H125.225L125.162 19.9572V22.7576H125.166ZM118.478 22.7576H120.074V16.6187H118.478V18.9254H116.477V16.6187H114.882V22.7576H116.477V20.3404H118.478V22.7576ZM112.067 18.0816C112.232 18.3174 112.299 18.6564 112.269 19.0986H109.999C110.04 18.6822 110.158 18.3469 110.361 18.1C110.559 17.8495 110.869 17.7279 111.282 17.7279C111.635 17.7242 111.897 17.8421 112.067 18.0816ZM113.028 21.1879C112.892 21.2948 112.689 21.3979 112.424 21.5011C112.159 21.6043 111.86 21.6559 111.525 21.6559C110.987 21.6559 110.596 21.5232 110.357 21.2616C110.117 21 109.985 20.6094 109.959 20.0972H113.629C113.669 19.8835 113.699 19.6808 113.721 19.4818C113.739 19.2865 113.751 19.1023 113.751 18.9291C113.751 18.4538 113.681 18.0558 113.541 17.7389C113.4 17.4183 113.216 17.1678 112.988 16.9761C112.759 16.7882 112.498 16.6519 112.203 16.5708C111.908 16.4898 111.606 16.4492 111.293 16.4492C110.361 16.4492 109.635 16.7182 109.119 17.2599C108.603 17.8015 108.345 18.6122 108.345 19.6919C108.345 20.6978 108.573 21.4901 109.03 22.0686C109.491 22.6434 110.213 22.9345 111.204 22.9345C111.68 22.9345 112.126 22.8682 112.549 22.7318C112.973 22.5955 113.305 22.4297 113.552 22.2344L113.028 21.1879ZM105.651 22.7576H107.247V16.6187H105.651V18.9254H103.65V16.6187H102.055V22.7576H103.65V20.3404H105.651V22.7576ZM97.3936 21.3537C97.261 21.2247 97.191 21.0479 97.191 20.8194C97.191 20.6536 97.2425 20.5209 97.3494 20.4141C97.4563 20.3072 97.6 20.2262 97.7805 20.1672C97.9611 20.1082 98.1674 20.0714 98.3996 20.0567C98.6317 20.0419 98.8749 20.0456 99.1292 20.0677V20.8673C99.037 21.0295 98.9007 21.1842 98.7128 21.3279C98.5249 21.4716 98.2706 21.5416 97.95 21.5416C97.7142 21.5416 97.53 21.479 97.3936 21.3537ZM96.3066 18.1663C96.535 18.0595 96.8298 17.9747 97.1836 17.9084C97.541 17.8421 97.8763 17.8089 98.1969 17.8089C98.6207 17.8089 98.897 17.9084 99.0186 18.1111C99.1402 18.3101 99.1734 18.6417 99.1181 19.0986C98.5764 19.0728 98.09 19.0949 97.6516 19.1539C97.2131 19.2165 96.8372 19.3271 96.5203 19.4855C96.2071 19.644 95.9639 19.854 95.7981 20.1119C95.6323 20.3699 95.5475 20.6868 95.5475 21.0626C95.5475 21.3316 95.5917 21.5748 95.6839 21.7922C95.776 22.0096 95.9013 22.1975 96.0634 22.356C96.2255 22.5144 96.4245 22.6397 96.653 22.7245C96.8814 22.8092 97.1394 22.8534 97.4268 22.8534C97.8837 22.8534 98.2596 22.7613 98.5507 22.5771C98.8418 22.3928 99.0665 22.1754 99.2323 21.9175H99.295L99.5529 22.765H100.854C100.754 22.4702 100.695 22.157 100.669 21.8254C100.644 21.4937 100.633 21.1511 100.636 20.801C100.64 20.4509 100.655 20.0898 100.68 19.7287C100.706 19.3639 100.717 19.0028 100.717 18.6417C100.717 18.3137 100.684 18.019 100.614 17.7573C100.544 17.4957 100.426 17.2709 100.257 17.083C100.091 16.8951 99.8624 16.7514 99.575 16.6482C99.2876 16.545 98.9339 16.4934 98.5064 16.4934C98.0163 16.4934 97.5447 16.534 97.0951 16.6224C96.6456 16.7072 96.255 16.8251 95.9271 16.9725L96.3066 18.1663ZM92.946 18.24C93.1266 18.5348 93.215 18.9512 93.215 19.4929C93.215 20.2372 93.1008 20.7715 92.8723 21.0958C92.6439 21.42 92.3012 21.5822 91.8406 21.5822C91.6195 21.5822 91.4426 21.5527 91.3063 21.5011C91.1736 21.4458 91.0447 21.3758 90.9341 21.2837V18.7301C91.0336 18.4206 91.1699 18.1848 91.3431 18.03C91.52 17.8752 91.7632 17.7979 92.0727 17.7979C92.4744 17.7979 92.7655 17.9453 92.946 18.24ZM89.3349 25.2117H90.9304V22.695C91.0926 22.7761 91.2584 22.835 91.4205 22.8719C91.5863 22.9087 91.7927 22.9271 92.0469 22.9271C92.4965 22.9271 92.8981 22.8498 93.2445 22.695C93.5909 22.5402 93.8857 22.3155 94.1289 22.0207C94.3684 21.7259 94.5526 21.3685 94.6742 20.9484C94.7995 20.5246 94.8585 20.053 94.8585 19.5297C94.8585 18.4501 94.6632 17.6652 94.2799 17.1788C93.8967 16.6924 93.3182 16.4492 92.5518 16.4492C92.1354 16.4492 91.7816 16.5229 91.4905 16.6703C91.1994 16.8177 90.9489 17.0462 90.7351 17.3594H90.6872L90.503 16.6224H89.3349V25.2117ZM82.2895 22.7576H84.0324L84.9794 21.2837L85.3737 20.3772L85.7422 21.2837L86.6892 22.7576H88.5427L86.5676 19.5666L88.4211 16.6187H86.6892L85.8527 17.9305L85.4843 18.7891L85.1416 17.9305L84.3457 16.6187H82.4443L84.2867 19.6145L82.2895 22.7576ZM78.2252 18.24C78.4463 17.9453 78.7521 17.7979 79.1464 17.7979C79.5959 17.7979 79.9165 17.9711 80.1044 18.3211C80.2924 18.6675 80.3882 19.1244 80.3882 19.6882C80.3882 20.3441 80.285 20.8231 80.0823 21.1253C79.8797 21.4274 79.5664 21.5785 79.1501 21.5785C78.929 21.5785 78.741 21.5306 78.5789 21.4348C78.4205 21.3427 78.2915 21.2063 78.192 21.0368C78.0925 20.8673 78.0188 20.6647 77.9709 20.4362C77.923 20.2077 77.8972 19.9572 77.8972 19.6882C77.8935 19.0175 78.0041 18.5348 78.2252 18.24ZM76.427 21.0147C76.5449 21.4164 76.7254 21.759 76.965 22.0391C77.2045 22.3228 77.5066 22.5402 77.8677 22.695C78.2289 22.8498 78.6526 22.9271 79.1427 22.9271C80.0602 22.9271 80.7677 22.6471 81.2725 22.087C81.7736 21.5269 82.0279 20.7273 82.0279 19.6882C82.0279 19.2055 81.9689 18.7633 81.851 18.3616C81.7331 17.96 81.5526 17.6173 81.3167 17.3373C81.0772 17.0535 80.7824 16.8361 80.4213 16.6814C80.0602 16.5266 79.6365 16.4492 79.1427 16.4492C78.2252 16.4492 77.514 16.7293 77.0055 17.2894C76.497 17.8495 76.2427 18.6491 76.2427 19.6882C76.2501 20.1709 76.3091 20.6131 76.427 21.0147ZM71.633 18.24C71.8541 17.9453 72.1599 17.7979 72.5542 17.7979C73.0038 17.7979 73.3244 17.9711 73.5123 18.3211C73.7002 18.6675 73.796 19.1244 73.796 19.6882C73.796 20.3441 73.6928 20.8231 73.4902 21.1253C73.2875 21.4274 72.9743 21.5785 72.5579 21.5785C72.3368 21.5785 72.1452 21.5306 71.9868 21.4348C71.8283 21.3427 71.6957 21.2063 71.5999 21.0368C71.5004 20.8673 71.4304 20.6647 71.3788 20.4362C71.3309 20.2077 71.3051 19.9572 71.3051 19.6882C71.3051 19.0175 71.4119 18.5348 71.633 18.24ZM69.8348 21.0147C69.9527 21.4164 70.1333 21.759 70.3765 22.0391C70.616 22.3228 70.9182 22.5402 71.2793 22.695C71.6404 22.8498 72.0641 22.9271 72.5542 22.9271C73.4717 22.9271 74.1829 22.6471 74.684 22.087C75.1889 21.5269 75.4394 20.7273 75.4394 19.6882C75.4394 19.2055 75.3805 18.7633 75.2626 18.3616C75.1447 17.96 74.9641 17.6173 74.7283 17.3373C74.4888 17.0535 74.1903 16.8361 73.8329 16.6814C73.4717 16.5266 73.048 16.4492 72.5542 16.4492C71.6367 16.4492 70.9255 16.7293 70.417 17.2894C69.9085 17.8495 69.6543 18.6491 69.6543 19.6882C69.658 20.1709 69.7169 20.6131 69.8348 21.0147ZM65.3135 19.1244V17.8347C65.402 17.8273 65.5052 17.82 65.612 17.8089C65.7226 17.8015 65.8736 17.7979 66.0616 17.7979C66.4374 17.7979 66.699 17.8531 66.8391 17.9637C66.9828 18.0742 67.0565 18.2364 67.0565 18.4464C67.0565 18.6454 66.9717 18.8038 66.8059 18.9328C66.6364 19.0618 66.4227 19.1244 66.1611 19.1244H65.3135ZM65.3135 20.1046H66.1353C66.5443 20.1046 66.828 20.1709 66.9901 20.3072C67.1486 20.4399 67.2297 20.6168 67.2297 20.8305C67.2297 21.0847 67.1338 21.2727 66.9459 21.3943C66.758 21.5195 66.4448 21.5785 66.0026 21.5785C65.8552 21.5785 65.7336 21.5748 65.6341 21.5674C65.5346 21.5601 65.4278 21.5453 65.3135 21.5306V20.1046ZM63.7512 22.7466C64.0386 22.7797 64.3739 22.8055 64.7571 22.8276C65.1404 22.8498 65.5052 22.8571 65.8515 22.8571C66.8907 22.8571 67.646 22.706 68.1177 22.4039C68.5894 22.1017 68.8252 21.6411 68.8252 21.0295C68.8252 20.6352 68.7257 20.3146 68.5304 20.0677C68.3351 19.8171 68.0145 19.644 67.5723 19.5445V19.4966C67.9224 19.375 68.1803 19.176 68.3462 18.907C68.5083 18.638 68.5894 18.358 68.5894 18.0742C68.5894 17.5584 68.4014 17.1714 68.0182 16.9135C67.6387 16.6556 66.9975 16.5266 66.0984 16.5266C65.6341 16.5266 65.1956 16.5377 64.7903 16.5634C64.385 16.5892 64.0386 16.6114 63.7549 16.6371V22.7466H63.7512ZM59.0936 21.3537C58.9572 21.2247 58.8909 21.0479 58.8909 20.8194C58.8909 20.6536 58.9462 20.5209 59.0493 20.4141C59.1562 20.3072 59.2999 20.2262 59.4805 20.1672C59.661 20.1082 59.8674 20.0714 60.0995 20.0567C60.3317 20.0419 60.5749 20.0456 60.8291 20.0677V20.8673C60.737 21.0295 60.6007 21.1842 60.409 21.3279C60.2211 21.4716 59.9669 21.5416 59.65 21.5416C59.4141 21.5416 59.2299 21.479 59.0936 21.3537ZM58.0065 18.1663C58.235 18.0595 58.5298 17.9747 58.8835 17.9084C59.241 17.8421 59.5763 17.8089 59.8969 17.8089C60.3243 17.8089 60.597 17.9084 60.7186 18.1111C60.8402 18.3101 60.8733 18.6417 60.8181 19.0986C60.2764 19.0728 59.79 19.0949 59.3515 19.1539C58.913 19.2165 58.5372 19.3271 58.2239 19.4855C57.9071 19.644 57.6675 19.854 57.498 20.1119C57.3322 20.3699 57.2475 20.6868 57.2475 21.0626C57.2475 21.3316 57.2917 21.5748 57.3838 21.7922C57.4722 22.0096 57.6012 22.1975 57.7633 22.356C57.9292 22.5144 58.1245 22.6397 58.3529 22.7245C58.5814 22.8092 58.8393 22.8534 59.1267 22.8534C59.5873 22.8534 59.9595 22.7613 60.2506 22.5771C60.5417 22.3928 60.7665 22.1754 60.9323 21.9175H60.9949L61.2529 22.765H62.5536C62.4541 22.4702 62.3952 22.157 62.3694 21.8254C62.3436 21.4937 62.3325 21.1511 62.3362 20.801C62.3399 20.4509 62.3546 20.0898 62.3804 19.7287C62.4062 19.3639 62.4173 19.0028 62.4173 18.6417C62.4173 18.3137 62.3841 18.019 62.3141 17.7573C62.2441 17.4957 62.1262 17.2709 61.9567 17.083C61.7872 16.8951 61.5624 16.7514 61.275 16.6482C60.9876 16.545 60.6338 16.4934 60.2064 16.4934C59.7163 16.4934 59.2446 16.534 58.7951 16.6224C58.3455 16.7072 57.955 16.8251 57.627 16.9725L58.0065 18.1663ZM54.646 18.24C54.8265 18.5348 54.915 18.9512 54.915 19.4929C54.915 20.2372 54.8008 20.7715 54.5723 21.0958C54.3438 21.42 54.0011 21.5822 53.5405 21.5822C53.3195 21.5822 53.1426 21.5527 53.0062 21.5011C52.8699 21.4458 52.7446 21.3758 52.6304 21.2837V18.7301C52.7299 18.4206 52.8662 18.1848 53.0431 18.03C53.22 17.8752 53.4632 17.7979 53.7727 17.7979C54.1743 17.7979 54.4654 17.9453 54.646 18.24ZM51.0349 25.2117H52.6304V22.695C52.7962 22.7761 52.9583 22.835 53.1242 22.8719C53.2863 22.9087 53.4963 22.9271 53.7506 22.9271C54.2001 22.9271 54.5981 22.8498 54.9481 22.695C55.2945 22.5402 55.5893 22.3155 55.8325 22.0207C56.072 21.7259 56.2563 21.3685 56.3779 20.9484C56.4995 20.5246 56.5621 20.053 56.5621 19.5297C56.5621 18.4501 56.3705 17.6652 55.9873 17.1788C55.6004 16.6924 55.0255 16.4492 54.2554 16.4492C53.839 16.4492 53.4853 16.5229 53.1942 16.6703C52.9031 16.8177 52.6525 17.0462 52.4388 17.3594H52.3909L52.2066 16.6224H51.0422V25.2117H51.0349ZM45.6587 21.42C45.7582 21.2395 45.8466 21.0147 45.9277 20.7457C46.0088 20.4767 46.0825 20.1856 46.1414 19.8724C46.2041 19.5629 46.2556 19.2423 46.2962 18.9107C46.3367 18.579 46.3662 18.2658 46.3809 17.9711H47.6706V21.42H45.6587ZM50.1652 21.3463H49.2698V16.6187H44.9954C44.9954 17.3815 44.9586 18.0374 44.8849 18.5938C44.8112 19.1502 44.7228 19.6182 44.6196 19.994C44.5164 20.3699 44.4132 20.6683 44.3137 20.8857C44.2106 21.1032 44.1258 21.2542 44.0632 21.3463H43.3373V24.1579H44.5017L44.6859 22.7576H48.8092L48.9935 24.1579H50.1579V21.3463H50.1652ZM39.9988 20.2151C40.5221 20.2151 40.8795 20.263 41.0711 20.3625C41.2627 20.462 41.3585 20.6168 41.3585 20.8305C41.3585 21.3058 40.9863 21.5416 40.242 21.5416C39.9141 21.5416 39.6193 21.5085 39.354 21.4422C39.0887 21.3758 38.8602 21.2911 38.6723 21.1842L38.3296 22.4223C38.5507 22.5476 38.827 22.6545 39.1587 22.7466C39.4903 22.8424 39.8809 22.8866 40.3304 22.8866C40.78 22.8866 41.1706 22.8387 41.4949 22.7392C41.8228 22.6397 42.0918 22.5108 42.3129 22.3449C42.5303 22.1791 42.6887 21.9875 42.7993 21.7627C42.9061 21.538 42.9577 21.2948 42.9577 21.0331C42.9577 20.6168 42.8656 20.2814 42.6887 20.0346C42.5082 19.784 42.2023 19.6108 41.7675 19.5113V19.4634C41.9333 19.4044 42.0734 19.3271 42.1913 19.2239C42.3092 19.1207 42.4087 19.0065 42.4898 18.8738C42.5708 18.7412 42.6298 18.6048 42.6666 18.4611C42.7035 18.3174 42.7219 18.1774 42.7219 18.0374C42.7219 17.5399 42.5487 17.1567 42.1987 16.8951C41.8523 16.6335 41.3254 16.5008 40.6215 16.5008C40.1646 16.5008 39.7298 16.5524 39.3282 16.6556C38.9228 16.7587 38.5986 16.8803 38.3517 17.0167L38.6944 18.2327C38.8418 18.1442 39.0371 18.0558 39.284 17.9747C39.5272 17.8937 39.8109 17.8531 40.1315 17.8531C40.4668 17.8531 40.7174 17.901 40.8795 17.9932C41.0453 18.0853 41.1264 18.2437 41.1264 18.4648C41.1264 18.6527 41.0343 18.8038 40.85 18.9181C40.6658 19.0323 40.4299 19.0876 40.1425 19.0876H39.3945V20.2041H39.9988V20.2151Z" fill="#9CC035"/>
<path d="M109.063 5.11034H103.956V6.52163H105.684V11.2493H107.328V6.52163H109.06V5.11034H109.063ZM101.65 11.2493H103.245V5.11034H101.65V7.41704H99.6487V5.11034H98.0532V11.2493H99.6487V8.83201H101.65V11.2493ZM95.2343 6.57322C95.4001 6.80904 95.4664 7.14805 95.4369 7.59023H93.1634C93.2039 7.17384 93.3255 6.83852 93.5245 6.59164C93.7235 6.34107 94.0293 6.21579 94.4457 6.21579C94.8068 6.21579 95.0685 6.3337 95.2343 6.57322ZM96.1997 9.67584C96.0634 9.7827 95.8607 9.88587 95.5954 9.98905C95.3301 10.0922 95.0316 10.1438 94.6963 10.1438C94.1583 10.1438 93.7677 10.0112 93.5282 9.74953C93.285 9.48791 93.156 9.09732 93.1302 8.58513H96.8003C96.8409 8.37141 96.8703 8.16874 96.8925 7.96976C96.9109 7.77447 96.9219 7.59023 96.9219 7.41704C96.9219 6.9417 96.8519 6.54742 96.7119 6.22684C96.5756 5.90626 96.3876 5.6557 96.1592 5.46408C95.9307 5.27247 95.6691 5.13982 95.3743 5.05875C95.0795 4.97769 94.7774 4.93716 94.4678 4.93716C93.5356 4.93716 92.8097 5.20615 92.2938 5.74782C91.7779 6.2858 91.52 7.10015 91.52 8.1798C91.52 9.18576 91.7484 9.97799 92.2054 10.5565C92.666 11.135 93.3882 11.4224 94.3794 11.4224C94.8547 11.4224 95.3043 11.3561 95.7244 11.2198C96.1444 11.0834 96.4797 10.9176 96.7229 10.7223L96.1997 9.67584ZM88.8927 11.2493H90.4256V5.11034H88.7564L87.4556 7.39493L87.0982 8.19085H87.0503L86.7076 7.41704L85.2963 5.11034H83.6418V11.2493H85.0642V8.42668L84.9057 7.16279H84.9794L85.4437 8.22033L86.7076 10.1217H87.2861L88.4395 8.22033L88.9295 7.16279H88.9922L88.8927 8.44142V11.2493ZM78.9805 9.84165C78.8479 9.71269 78.7779 9.53581 78.7779 9.30735C78.7779 9.14154 78.8294 9.00888 78.9363 8.90202C79.0432 8.79516 79.1869 8.7141 79.3674 8.65514C79.548 8.59618 79.7543 8.55934 79.9865 8.5446C80.2186 8.52986 80.4655 8.53354 80.7161 8.55565V9.35526C80.624 9.51739 80.4876 9.67215 80.2997 9.81586C80.1118 9.95957 79.8575 10.0296 79.5369 10.0296C79.3011 10.0333 79.1169 9.97062 78.9805 9.84165ZM77.8935 6.65797C78.122 6.55111 78.4167 6.46636 78.7705 6.40003C79.1279 6.3337 79.4632 6.30054 79.7838 6.30054C80.2076 6.30054 80.4839 6.40003 80.6055 6.60269C80.7271 6.80168 80.7603 7.13331 80.705 7.59023C80.167 7.56443 79.677 7.58654 79.2385 7.6455C78.8 7.70814 78.4241 7.81869 78.1109 7.97713C77.794 8.13558 77.5545 8.34562 77.385 8.60355C77.2192 8.86149 77.1344 9.17839 77.1344 9.55424C77.1344 9.82323 77.1786 10.0664 77.2708 10.2838C77.3629 10.5012 77.4882 10.6892 77.6503 10.8476C77.8161 11.0061 78.0114 11.1313 78.2399 11.2161C78.4683 11.3008 78.7263 11.3451 79.0137 11.3451C79.4743 11.3451 79.8465 11.2529 80.1376 11.0687C80.4287 10.8845 80.6571 10.6671 80.8193 10.4128H80.8819L81.1398 11.2603H82.4406C82.3411 10.9655 82.2821 10.6523 82.2563 10.3207C82.2305 9.98905 82.2232 9.64636 82.2269 9.2963C82.2305 8.94624 82.2453 8.58513 82.2674 8.22402C82.2932 7.85922 82.3042 7.49811 82.3042 7.13699C82.3042 6.80904 82.2711 6.51426 82.2011 6.25264C82.1311 5.99101 82.0131 5.76624 81.8436 5.57831C81.6778 5.39039 81.4494 5.24668 81.1619 5.14351C80.8745 5.04033 80.5208 4.98874 80.0933 4.98874C79.6033 4.98874 79.1316 5.02928 78.6821 5.11771C78.2325 5.20246 77.8419 5.32038 77.5177 5.46777L77.8935 6.65797ZM76.8396 5.11034H71.7325V6.52163H73.4643V11.2493H75.1115V6.52163H76.8433V5.11034H76.8396ZM69.4995 6.73166C69.68 7.02645 69.7685 7.44283 69.7685 7.9845C69.7685 8.72884 69.6542 9.26314 69.4258 9.5874C69.1973 9.91167 68.8546 10.0738 68.394 10.0738C68.1729 10.0738 67.9961 10.048 67.8597 9.99273C67.7234 9.94114 67.5981 9.86745 67.4839 9.77901V7.22543C67.5834 6.9159 67.7197 6.68008 67.8966 6.52531C68.0734 6.37055 68.3167 6.29317 68.6262 6.29317C69.0278 6.28949 69.3189 6.43688 69.4995 6.73166ZM65.8883 13.7033H67.4839V11.1866C67.6497 11.2677 67.8118 11.3266 67.974 11.3635C68.1398 11.4003 68.3461 11.4188 68.6004 11.4188C69.0499 11.4188 69.4479 11.3414 69.7979 11.1866C70.1443 11.0319 70.4391 10.8071 70.6823 10.5123C70.9218 10.2175 71.1061 9.86008 71.2277 9.44001C71.3493 9.01994 71.4119 8.5446 71.4119 8.02135C71.4119 6.9417 71.2203 6.15683 70.8334 5.67043C70.4502 5.18404 69.8716 4.94084 69.1052 4.94084C68.6888 4.94084 68.3351 5.01454 68.044 5.16193C67.7529 5.30932 67.5023 5.53778 67.2886 5.85099H67.2407L67.0564 5.11403H65.8883V13.7033ZM61.2307 9.84165C61.0944 9.71269 61.0281 9.53581 61.0281 9.30735C61.0281 9.14154 61.0797 9.00888 61.1865 8.90202C61.2934 8.79516 61.4371 8.7141 61.6176 8.65514C61.7982 8.59618 62.0045 8.55934 62.2367 8.5446C62.4688 8.52986 62.712 8.53354 62.9663 8.55565V9.35526C62.8779 9.51739 62.7378 9.67215 62.5499 9.81586C62.362 9.95957 62.1077 10.0296 61.7871 10.0296C61.5513 10.0333 61.3634 9.97062 61.2307 9.84165ZM60.1437 6.65797C60.3722 6.55111 60.667 6.46636 61.0207 6.40003C61.3781 6.3337 61.7134 6.30054 62.034 6.30054C62.4615 6.30054 62.7341 6.40003 62.8557 6.60269C62.9773 6.80168 63.0105 7.13331 62.9552 7.59023C62.4172 7.56443 61.9272 7.58654 61.4887 7.6455C61.0502 7.70814 60.6743 7.81869 60.3574 7.97713C60.0405 8.13558 59.801 8.34562 59.6315 8.60355C59.4657 8.86149 59.381 9.17839 59.381 9.55424C59.381 9.82323 59.4252 10.0664 59.5136 10.2838C59.6057 10.5012 59.731 10.6892 59.8931 10.8476C60.0553 11.0061 60.2543 11.1313 60.4827 11.2161C60.7112 11.3008 60.9691 11.3451 61.2565 11.3451C61.7134 11.3451 62.0893 11.2529 62.3804 11.0687C62.6715 10.8845 62.8963 10.6671 63.0621 10.4128H63.1247L63.3827 11.2603H64.6834C64.5839 10.9655 64.525 10.6523 64.4992 10.3207C64.4734 9.98905 64.466 9.64636 64.4697 9.2963C64.4734 8.94624 64.4881 8.58513 64.5139 8.22402C64.5397 7.85922 64.5508 7.49811 64.5508 7.13699C64.5508 6.80904 64.5176 6.51426 64.4476 6.25264C64.3776 5.99101 64.2597 5.76624 64.0902 5.57831C63.9243 5.39039 63.6959 5.24668 63.4085 5.14351C63.121 5.04033 62.7673 4.98874 62.3399 4.98874C61.8498 4.98874 61.3781 5.02928 60.9286 5.11771C60.479 5.20246 60.0884 5.32038 59.7605 5.46777L60.1437 6.65797ZM56.8053 11.2493H58.4008V5.11034H53.2678V11.2493H54.8634V6.52163H56.8016V11.2493H56.8053ZM50.4526 6.57322C50.6184 6.80904 50.6848 7.14805 50.6516 7.59023H48.3818C48.4223 7.17384 48.5402 6.83852 48.7429 6.59164C48.9419 6.34107 49.2477 6.21579 49.6641 6.21579C50.0252 6.21579 50.2868 6.3337 50.4526 6.57322ZM51.418 9.67584C51.2817 9.7827 51.079 9.88587 50.8137 9.98905C50.5484 10.0922 50.25 10.1438 49.9146 10.1438C49.3767 10.1438 48.9861 10.0112 48.7466 9.74953C48.507 9.48791 48.3744 9.09732 48.3486 8.58513H52.0187C52.0592 8.37141 52.0887 8.16874 52.1108 7.96976C52.1329 7.77447 52.144 7.59023 52.144 7.41704C52.144 6.9417 52.074 6.54742 51.9339 6.22684C51.7939 5.90626 51.6097 5.6557 51.3812 5.46408C51.1527 5.27616 50.8911 5.13982 50.5963 5.05875C50.3015 4.97769 49.9994 4.93716 49.6862 4.93716C48.7539 4.93716 48.0317 5.20615 47.5121 5.74782C46.9963 6.2858 46.7383 7.10015 46.7383 8.1798C46.7383 9.18576 46.9668 9.97799 47.4274 10.5565C47.8843 11.135 48.6102 11.4224 49.6014 11.4224C50.0768 11.4224 50.5226 11.3561 50.9464 11.2198C51.3665 11.0834 51.7018 10.9176 51.945 10.7223L51.418 9.67584ZM40.7505 9.74953C40.9384 9.33315 41.1227 8.65883 41.3106 7.73025C41.4948 6.80168 41.6091 5.60779 41.6606 4.15229H43.562V9.74953H40.7505ZM46.333 9.74953H45.2386V2.65625H40.0946C40.102 3.82802 40.0614 4.84135 39.973 5.69623C39.8809 6.55111 39.774 7.26228 39.6414 7.83343C39.5087 8.40089 39.3797 8.84307 39.2471 9.15259C39.1144 9.46212 39.0223 9.66478 38.9634 9.75322H38.0569V12.7858H39.2471L39.4313 11.2529H44.9549L45.1391 12.7858H46.3293V9.74953H46.333Z" fill="#9CC035"/>
<path d="M16.5522 39.6999L16.0658 39.2872C15.1815 38.5355 13.398 37.2753 11.3493 37.2753H6.14997C3.09157 37.2753 0 35.4071 0 31.8365V0.382812H33.1081V31.8365C33.1081 35.4071 30.0166 37.2753 26.9582 37.2753H21.7552C19.7101 37.2753 17.923 38.5355 17.0386 39.2872L16.5522 39.6999ZM1.49972 1.88254V31.8328C1.49972 34.4158 3.8359 35.7719 6.14628 35.7719H11.3493C13.5307 35.7719 15.4099 36.8773 16.5522 37.7506C17.6945 36.8773 19.5738 35.7719 21.7552 35.7719H26.9582C29.2685 35.7719 31.6047 34.4195 31.6047 31.8328V1.88254H1.49972Z" fill="#9CC035"/>
<path d="M2.97729 19.8173C4.33699 19.8173 4.2375 20.499 4.4807 21.1844C4.4807 20.8012 4.64283 20.5027 4.89709 20.2743L4.90446 20.1453C5.05554 13.5016 13.3059 5.40969 22.7611 3.38672H2.97729V19.8173Z" fill="#85BDE8"/>
<path d="M28.7601 3.39062C29.0585 3.67436 29.0254 4.02073 28.6901 4.25656C28.0194 4.72822 22.05 8.88101 27.253 18.5389C27.334 18.6863 27.4114 18.8337 27.4851 18.9737C28.6901 18.4284 30.1235 19.2685 30.1235 19.8618V3.39062H28.7601Z" fill="#85BDE8"/>
<path d="M24.2425 10.048C24.5778 7.78922 25.3959 6.23423 26.1992 5.19879C27.0688 4.12282 27.6178 4.20757 27.5073 3.87594C27.4373 3.66591 26.3797 3.66222 25.3332 3.83172C22.6691 4.26653 18.579 5.46778 14.603 7.96978C7.98877 12.1226 3.77334 19.6101 6.29007 24.5994C7.77874 27.562 10.1776 27.8752 11.9315 27.6173C11.9315 27.6173 13.1328 31.1842 17.2303 34.3494C17.3445 34.4268 17.3888 34.4231 17.4182 34.4047C17.5877 34.3015 17.1456 33.9515 16.9282 33.6751C16.0364 32.6691 14.9384 31.2615 14.2272 29.7655C13.3539 27.9268 11.9573 24.5957 13.2802 18.7405C13.925 15.8848 15.1963 13.5744 16.3275 11.9531C16.4786 11.7504 16.685 11.4962 16.7881 11.3561C17.4256 10.4939 17.3814 10.9434 17.3335 11.0319C17.2487 11.2014 17.0608 11.5256 16.9355 11.8278C16.5707 12.62 16.1617 13.6444 15.7416 14.9599C14.2272 19.6838 15.55 22.897 15.55 22.897L17.0608 20.2513C17.8199 18.9284 19.0469 17.6498 20.086 16.7065C20.3292 16.5038 21.0294 15.9143 21.1215 15.9143C21.1915 15.9143 21.3168 15.929 21.0183 16.2717C20.0492 17.3956 18.6969 19.3854 18.0041 21.5741C17.7757 22.2964 17.6246 23.0444 17.5509 23.7924C18.8332 23.6082 18.4095 25.1779 17.573 25.9812C17.842 28.0742 18.8701 29.8171 20.8414 30.2666C24.7363 31.1584 27.4446 28.4463 27.5515 24.0282C27.6694 18.84 23.4871 15.1478 24.2425 10.048ZM17.9636 17.5135C17.6356 18.3462 17.0719 18.6115 16.6702 18.4789C16.4418 18.4052 15.8522 18.0478 16.1654 17.0086C16.4786 15.9695 17.3114 15.7595 17.6541 15.9106C18.0962 16.1059 18.2879 16.6844 17.9636 17.5135Z" fill="#9CC035"/>
<path d="M16.8064 24.2642C18.5162 23.4831 17.676 25.7492 16.7917 25.9224C16.1026 25.6718 15.362 23.2841 16.8064 24.2642Z" fill="#DC0D15"/>
<path d="M14.6029 33.0488C12.9521 32.1276 11.8835 30.0309 11.3529 28.9402C10.9513 28.9513 10.1222 29.1208 9.12727 29.4119C8.77721 28.9623 8.52296 28.4649 8.36451 28.1406C7.74177 28.1554 4.54703 29.0066 3.78427 29.9609C4.10854 30.4584 4.27436 30.5689 4.5802 30.8416C4.83813 30.779 5.32085 30.6979 5.91042 30.6131C4.75707 31.1511 3.73269 31.7849 3.1947 32.4592C3.84323 33.4505 3.83218 33.5721 4.44754 34.1137C5.37243 33.8889 7.58701 33.6015 9.83107 33.3841C9.2894 33.7231 8.83248 34.0879 8.6335 34.4269C9.02409 34.8728 9.20465 34.9612 9.54734 35.1897C10.3396 34.8765 13.4717 34.0179 14.8129 33.8005C14.426 33.6531 14.087 33.3804 13.7886 33.0857C14.0797 33.0599 14.356 33.0525 14.6029 33.0488Z" fill="#E2B900"/>
<path d="M30.223 29.8535C28.9812 29.8756 19.2606 31.917 17.7351 33.2104C18.3873 33.8847 18.719 34.0395 19.3306 34.408C20.1155 34.279 21.8179 34.0726 23.6824 33.8884C23.2918 34.1611 22.9749 34.4448 22.8165 34.7101C23.2071 35.156 23.3876 35.2444 23.7303 35.4729C24.5226 35.1597 27.6547 34.3011 28.9959 34.08C28.6864 33.9584 28.399 33.7594 28.1447 33.5347C28.6201 33.5089 29.0586 33.4941 29.4344 33.4867C29.8545 33.1772 30.223 30.9774 30.223 29.8535Z" fill="#E2B900"/>
</svg>
