<svg width="23" height="23" viewBox="0 0 23 23" fill="none" xmlns="http://www.w3.org/2000/svg">
<path fill-rule="evenodd" clip-rule="evenodd" d="M15.6236 16.8484C11.8807 19.9725 6.30443 19.7775 2.79038 16.2635C-0.930125 12.543 -0.930125 6.51086 2.79038 2.79037C6.51088 -0.930122 12.543 -0.930122 16.2635 2.79037C19.7776 6.30443 19.9725 11.8807 16.8484 15.6236L23 21.7752L21.7752 23L15.6236 16.8484ZM15.0217 15.0556L15.0556 15.0216C18.0827 11.9762 18.0771 7.05357 15.0387 4.01519C11.9946 0.971156 7.05925 0.971156 4.0152 4.01519C0.971159 7.05923 0.971159 11.9946 4.0152 15.0386C7.05359 18.077 11.9763 18.0827 15.0217 15.0556Z" fill="white"/>
</svg>
