<svg width="23" height="23" viewBox="0 0 23 23" fill="none" xmlns="http://www.w3.org/2000/svg">
<path d="M22.382 10.0039C22.3811 10.0034 22.3806 10.0025 22.3802 10.0021L12.997 0.620235C12.5972 0.220098 12.0652 0 11.4998 0C10.9344 0 10.4024 0.220098 10.0022 0.620235L0.623917 9.99758C0.620766 10.0007 0.617615 10.0039 0.614464 10.007C-0.207045 10.833 -0.205245 12.1729 0.618515 12.997C0.994834 13.3738 1.49179 13.5916 2.02341 13.6146C2.04501 13.6168 2.06707 13.6177 2.08868 13.6177H2.4623V20.5222C2.4623 21.8887 3.57415 23.0005 4.94078 23.0005H8.61169C8.98395 23.0005 9.28555 22.6984 9.28555 22.3267V16.9133C9.28555 16.2899 9.79286 15.7827 10.4163 15.7827H12.5815C13.2049 15.7827 13.7122 16.2899 13.7122 16.9133V22.3262C13.7122 22.6984 14.0138 23 14.3861 23H18.057C19.4236 23 20.5355 21.8883 20.5355 20.5218V13.6173H20.8821C21.4475 13.6173 21.9791 13.3972 22.3797 12.9966C23.2053 12.172 23.2057 10.8294 22.382 10.0039ZM21.4277 12.0442C21.2823 12.1896 21.0887 12.2697 20.8835 12.2697H19.863C19.4907 12.2697 19.1891 12.5712 19.1891 12.9435V20.5218C19.1891 21.1452 18.6818 21.652 18.0584 21.652H15.0613V16.9133C15.0613 15.5468 13.9495 14.4351 12.5828 14.4351H10.4177C9.05102 14.4351 7.93917 15.5468 7.93917 16.9133V21.6524H4.94213C4.31868 21.6524 3.81137 21.1452 3.81137 20.5222V12.9439C3.81137 12.5717 3.50978 12.2701 3.13751 12.2701H2.13369C2.12334 12.2692 2.11299 12.2688 2.10218 12.2688C1.90142 12.2652 1.71326 12.1855 1.57192 12.0442C1.27167 11.744 1.27167 11.2556 1.57192 10.9554C1.57192 10.9554 1.57192 10.9554 1.57237 10.9549L1.57282 10.9545L10.9556 1.57309C11.101 1.42771 11.2941 1.34759 11.4998 1.34759C11.7055 1.34759 11.8986 1.42771 12.044 1.57309L21.4245 10.9527C21.4259 10.954 21.4277 10.9554 21.429 10.9567C21.7275 11.2574 21.727 11.7449 21.4277 12.0442Z" fill="white"/>
</svg>
