<svg width="33" height="47" viewBox="0 0 33 47" fill="none" xmlns="http://www.w3.org/2000/svg">
<path d="M6.9608 24.8837C10.7601 28.6266 14.8145 35.1459 14.8145 42.2337C14.8145 42.6222 15.1242 42.9444 15.4978 42.9444C15.8713 42.9444 16.1811 42.6222 16.1811 42.2337C16.1811 34.691 11.9081 27.7927 7.89923 23.8508C5.34815 21.3397 3.92683 17.7958 3.99973 14.1382C4.0635 10.7553 5.39371 7.5715 7.72612 5.17415C10.0585 2.77679 13.138 1.45018 16.3998 1.42176C19.7617 1.40281 22.9141 2.73888 25.2921 5.1931C27.6701 7.64731 28.9821 10.9259 28.9821 14.413C28.9821 18.0138 27.5972 21.3682 25.0825 23.8413C22.8595 26.0302 20.8277 28.9108 19.3608 31.962C17.6844 35.4396 16.8007 38.993 16.8007 42.2432C16.8007 42.6317 17.1104 42.9539 17.484 42.9539C17.8575 42.9539 18.1673 42.6317 18.1673 42.2432C18.1673 35.6007 22.1124 28.7308 26.021 24.8742C28.8089 22.1262 30.3487 18.4117 30.3487 14.413C30.3487 10.5469 28.8909 6.9082 26.2579 4.1792C23.6248 1.45966 20.1171 -0.0280261 16.3998 0.00039996C12.7827 0.028826 9.36609 1.50704 6.77858 4.16024C4.19105 6.81345 2.71507 10.3479 2.64219 14.1098C2.56019 18.1654 4.13639 22.0883 6.9608 24.8837Z" fill="white"/>
<path d="M28.9365 41.1061C26.6679 40.6134 23.4972 40.2722 20.0168 40.1301C19.6342 40.1206 19.3244 40.4238 19.3062 40.8124C19.288 41.2009 19.5886 41.5325 19.9622 41.5515C23.1601 41.6746 26.0119 41.9684 28.1894 42.4043C30.5856 42.8781 31.3418 43.3518 31.5513 43.5414C31.3054 43.7593 30.3487 44.3563 27.0323 44.8774C24.1441 45.3417 20.3995 45.5881 16.4818 45.5881C12.5641 45.5881 8.81944 45.3323 5.93125 44.8774C2.61485 44.3468 1.66731 43.7593 1.4122 43.5414C1.63087 43.3518 2.36886 42.8875 4.71038 42.4232C6.85146 41.9968 9.64854 41.7031 12.8009 41.5704C13.1745 41.5515 13.4752 41.2198 13.4569 40.8313C13.4387 40.4428 13.1289 40.1396 12.7463 40.1491C9.32054 40.2912 6.20458 40.6418 3.9815 41.125C1.22998 41.722 0 42.4706 0 43.5319C0 44.7353 1.60353 45.5597 5.20237 46.1851C8.22722 46.7157 12.2361 47 16.5 47C20.7639 47 24.7728 46.7063 27.7976 46.1851C31.3965 45.5597 33 44.7353 33 43.5319C32.9909 42.4611 31.7427 41.7125 28.9365 41.1061Z" fill="white"/>
<path fill-rule="evenodd" clip-rule="evenodd" d="M18.3131 21.7661H14.6778C14.0674 21.7661 13.5754 21.2545 13.5754 20.6006V17.4073H10.5141C9.90364 17.4073 9.41165 16.8956 9.41165 16.2607V12.4894C9.41165 11.8545 9.90364 11.3428 10.5141 11.3428H13.5845V8.14952C13.5845 7.51465 14.0765 7.00296 14.6869 7.00296H18.3131C18.9235 7.00296 19.4155 7.51465 19.4155 8.14952V11.3618H22.4859C23.0964 11.3618 23.5883 11.8735 23.5883 12.5084V16.2797C23.5883 16.9146 23.0964 17.4263 22.4859 17.4263H19.4155V20.6196C19.4155 21.2545 18.9235 21.7661 18.3131 21.7661ZM10.7601 12.7642V15.9954H14.942V20.3448H18.0489V15.9954H22.2308V12.7642H18.0489V8.41484H14.942V12.7642H10.7601Z" fill="white"/>
</svg>
