<svg width="27" height="28" viewBox="0 0 27 28" fill="none" xmlns="http://www.w3.org/2000/svg">
<path d="M17.7164 0L17.4945 0.151967H17.4575L17.2726 0.303935C17.1986 0.341927 17.1616 0.379919 17.0877 0.41791L15.0904 1.70963C13.1301 2.96337 11.2068 4.25509 9.24658 5.50882C9.13562 5.5848 9.06164 5.5848 8.95068 5.54681C6.69452 4.90095 4.43836 4.25509 2.14521 3.60923L1.10959 3.30529C0.628767 3.15332 0.369863 3.22931 0.0739726 3.68521L0 3.76119V22.9471V24.3528V24.5807L9.24658 28L9.50548 27.848L10.4671 27.1642C11.1329 26.6703 11.7986 26.2144 12.4274 25.7205L14.4247 24.3148C15.5712 23.517 16.6808 22.6811 17.8274 21.8833C17.8644 21.8833 17.8644 21.8453 17.8644 21.8453C17.8644 21.8453 17.8644 21.8453 17.9014 21.8453C20.1575 22.6431 22.4137 23.441 24.7069 24.2768L25.7794 24.6567C26.2603 24.8467 26.5932 24.8087 26.926 24.3148L27 24.2008V5.05292V3.60923V3.41927L17.7164 0ZM1.66438 5.05292C2.14521 5.20489 2.62603 5.31886 3.06986 5.47083L4.54931 5.88874C5.84384 6.26866 7.13836 6.64858 8.46986 7.02849C8.46986 12.4993 8.46986 18.0081 8.46986 23.479V25.9864L1.51644 23.403V5.01493L1.66438 5.05292ZM16.9767 20.5916C14.9795 22.0353 12.9822 23.441 10.9849 24.8847L9.9863 25.5685V6.87653V6.83853C11.9096 5.5848 13.8699 4.33107 15.7932 3.07734L16.9767 2.3175V3.98915C16.9767 9.49796 16.9767 15.0068 16.9767 20.5156C16.9767 20.5536 16.9767 20.5916 16.9767 20.5916ZM23.9301 22.3772C22.1178 21.7313 20.3055 21.0855 18.4932 20.4396C18.4932 15.0448 18.4932 9.68792 18.4932 4.29308V2.01357L25.4836 4.59702V22.9091L23.9301 22.3772Z" fill="#9DD8FF"/>
</svg>
