<svg width="102" height="43" viewBox="0 0 102 43" fill="none" xmlns="http://www.w3.org/2000/svg">
<path d="M20.6487 25.2124L16.4775 29.3836L6.61079 32.3908L0 39.0016V41.3009H20.6487V30.0884L18.3527 32.3845V39.0016H3.24959L7.83217 34.4222L17.6957 31.415L20.6487 28.462V25.2124Z" fill="#358E43"/>
<path d="M14.6471 26.338L4.78349 29.3421L2.29608 31.8263V2.37273C3.7388 2.54111 5.12381 3.03764 6.34491 3.82425C7.566 4.61086 8.59074 5.66665 9.34057 6.91067L10.3228 8.52749L11.3177 6.91067C12.0665 5.66838 13.0893 4.6137 14.308 3.8272C15.5267 3.0407 16.9091 2.5432 18.3495 2.37273V21.0092L20.6487 18.7099V0.000115078H19.5007C17.7451 -0.0063079 16.0101 0.379128 14.4224 1.12832C12.8346 1.87752 11.434 2.97159 10.3228 4.33077C9.21306 2.97062 7.81325 1.87583 6.2258 1.12652C4.63835 0.377213 2.90343 -0.00764562 1.14804 0.000115078H0V37.3751L6.00169 31.3734L15.8653 28.3694L20.6487 23.5859V20.3363L14.6471 26.338Z" fill="#E24D25"/>
<path d="M30.3306 3.21143H27.9006V5.56172H27.03V0.181885H27.9006V2.44288H30.3306V0.181885H31.198V5.56172H30.3306V3.21143Z" fill="black"/>
<path d="M32.5215 0.181885H33.3697V3.23375L33.2836 4.34033H33.3219L33.8608 3.34856L35.9209 0.181885H36.7086V5.56172H35.8603V2.4971L35.9464 1.38733H35.9209L35.3692 2.37272L33.3219 5.56172H32.5374L32.5215 0.181885Z" fill="black"/>
<path d="M38.0129 0.181885H38.8612V3.23375L38.7751 4.34033H38.7974L39.3363 3.34856L41.3996 0.181885H42.1841V5.56172H41.3358V2.4971L41.4219 1.38733H41.3996L40.8607 2.37272L38.7974 5.56172H38.0129V0.181885Z" fill="black"/>
<path d="M29.106 14.5483C28.778 14.5541 28.4524 14.4922 28.1493 14.3665C27.8674 14.2488 27.6164 14.0677 27.4159 13.8372C27.202 13.5814 27.0415 13.2854 26.9439 12.9666C26.7264 12.1842 26.7264 11.3572 26.9439 10.5748C27.0448 10.2564 27.2085 9.96143 27.4254 9.70741C27.626 9.4769 27.877 9.29575 28.1589 9.17804C28.7726 8.9298 29.4587 8.9298 30.0723 9.17804C30.348 9.29718 30.5924 9.47834 30.7866 9.70741C31.0015 9.96249 31.1621 10.2587 31.2586 10.578C31.4761 11.3604 31.4761 12.1873 31.2586 12.9698C31.1637 13.2935 31.0031 13.5943 30.7866 13.8531C30.5879 14.0842 30.3378 14.2655 30.0564 14.3825C29.7541 14.5017 29.4308 14.5581 29.106 14.5483ZM29.106 13.7798C29.3005 13.781 29.4934 13.7442 29.6737 13.6713C29.8411 13.5986 29.9903 13.4897 30.1106 13.3524C30.2367 13.206 30.3322 13.0358 30.3912 12.8518C30.4619 12.6379 30.4964 12.4137 30.4932 12.1884V11.3466C30.4961 11.1213 30.4616 10.8972 30.3912 10.6832C30.3322 10.4992 30.2367 10.329 30.1106 10.1826C29.9914 10.044 29.8419 9.93491 29.6737 9.86367C29.3099 9.71481 28.9022 9.71481 28.5384 9.86367C28.3711 9.93503 28.2227 10.0442 28.1047 10.1826C27.9785 10.329 27.8831 10.4992 27.8241 10.6832C27.7537 10.8972 27.7192 11.1213 27.722 11.3466V12.1948C27.7189 12.4201 27.7534 12.6442 27.8241 12.8581C27.8831 13.0422 27.9785 13.2124 28.1047 13.3588C28.2237 13.496 28.3719 13.605 28.5384 13.6777C28.7191 13.7487 28.912 13.7834 29.106 13.7798Z" fill="black"/>
<path d="M32.5087 14.4558V9.08555H34.8143C35.027 9.07245 35.24 9.10493 35.4391 9.18083C35.6382 9.25672 35.8188 9.37428 35.9688 9.52564C36.231 9.86184 36.3734 10.276 36.3734 10.7024C36.3734 11.1287 36.231 11.5429 35.9688 11.8791C35.8181 12.0294 35.6374 12.146 35.4384 12.2213C35.2394 12.2966 35.0267 12.3289 34.8143 12.316H33.3761V14.4558H32.5087ZM33.3761 11.5475H34.7601C34.9481 11.5585 35.133 11.4968 35.2767 11.3753C35.3406 11.3112 35.3902 11.2343 35.4221 11.1496C35.454 11.0649 35.4675 10.9744 35.4617 10.8841V10.5206C35.4679 10.4298 35.4547 10.3387 35.4228 10.2534C35.3908 10.1682 35.3411 10.0907 35.2767 10.0263C35.1327 9.90559 34.9477 9.84506 34.7601 9.85729H33.3761V11.5475Z" fill="black"/>
<path d="M37.3305 9.08555H40.3536V9.85729H38.1979V14.4558H37.3305V9.08555Z" fill="black"/>
<path d="M43.9381 14.4558L43.4533 13.0016H41.4443L40.9755 14.4558H40.0921L41.9322 9.08555H43.0228L44.8533 14.4558H43.9381ZM42.4679 9.88599H42.4297L41.6515 12.2586H43.246L42.4679 9.88599Z" fill="black"/>
<path d="M48.9767 12.1183H46.5435V14.4558H45.6761V9.08555H46.5435V11.3465H48.9767V9.08555H49.8441V14.4558H48.9767V12.1183Z" fill="black"/>
<path d="M51.1803 9.08555H52.0253V12.1406L51.9424 13.2472H51.9648L52.4909 12.2586L54.551 9.08874H55.326V14.4558H54.4809V11.4008L54.5638 10.2942H54.5415L54.0121 11.3019L51.952 14.4718H51.1803V9.08555Z" fill="black"/>
<path d="M58.1737 14.5483C57.7932 14.5569 57.4158 14.4783 57.0703 14.3187C56.7538 14.1629 56.476 13.9385 56.2571 13.6618L56.8503 13.1164C57.0032 13.3159 57.1953 13.4819 57.4147 13.6044C57.6493 13.7247 57.9101 13.7849 58.1737 13.7798C58.46 13.7974 58.7448 13.7273 58.9901 13.5788C59.0851 13.5089 59.1609 13.4161 59.2105 13.3091C59.2601 13.2021 59.2819 13.0842 59.2739 12.9666V12.8964C59.2801 12.7893 59.2618 12.6822 59.2204 12.5833C59.1789 12.4844 59.1154 12.3962 59.0348 12.3256C58.8167 12.1744 58.553 12.1034 58.2885 12.1247H57.4275V11.3402H58.2439C58.4929 11.3606 58.7409 11.2904 58.9423 11.1425C59.0205 11.0665 59.081 10.9743 59.1196 10.8723C59.1582 10.7704 59.1739 10.6612 59.1655 10.5525V10.476C59.1717 10.3751 59.1538 10.2742 59.1133 10.1816C59.0728 10.089 59.0109 10.0074 58.9327 9.94339C58.7207 9.8068 58.4699 9.74299 58.2184 9.76162C57.9702 9.75646 57.7244 9.81 57.5009 9.91788C57.306 10.0142 57.1358 10.1538 57.0034 10.3261L56.4134 9.8254C56.6163 9.5686 56.8733 9.35956 57.166 9.21311C57.4949 9.05877 57.8552 8.98342 58.2184 8.99307C58.7135 8.96094 59.2046 9.10061 59.6088 9.38851C59.7652 9.5152 59.8902 9.67648 59.9737 9.85964C60.0573 10.0428 60.0972 10.2429 60.0903 10.4441C60.1023 10.6 60.0819 10.7567 60.0303 10.9044C59.9787 11.052 59.8971 11.1874 59.7906 11.3019C59.5808 11.5028 59.3129 11.6323 59.0252 11.6718V11.7101C59.1763 11.7251 59.3245 11.7616 59.4653 11.8185C59.6032 11.8719 59.7298 11.9509 59.8384 12.0513C59.949 12.1555 60.037 12.2815 60.0967 12.4212C60.1641 12.5861 60.1966 12.763 60.1924 12.941C60.1956 13.1685 60.1488 13.3939 60.0552 13.6012C59.9628 13.802 59.8253 13.9788 59.6534 14.1178C59.4641 14.2654 59.2473 14.3739 59.0156 14.4367C58.7421 14.5154 58.4583 14.5531 58.1737 14.5483Z" fill="black"/>
<path d="M64.5198 14.4558L64.0351 13.0016H62.0228L61.5541 14.4558H60.6707L62.5012 9.08555H63.5918L65.4255 14.4558H64.5198ZM63.0497 9.88599H63.0114L62.2365 12.2586H63.831L63.0497 9.88599Z" fill="black"/>
<path d="M70.3142 14.4558H66.2578V9.08555H67.1252V13.6873H69.4404V9.08555H70.3142V13.6873H71.1147V15.6007H70.3142V14.4558Z" fill="black"/>
<path d="M72.0044 9.08555H72.8654V12.1406L72.7825 13.2472H72.8048L73.3278 12.2586L75.3879 9.08874H76.1724V14.4558H75.3273V11.4008L75.4102 10.2942H75.3879L74.849 11.3019L72.7889 14.4718H72.0044V9.08555Z" fill="black"/>
<path d="M77.4959 9.08555H78.3409V12.1406L78.258 13.2472H78.2867L78.8193 12.2586L80.8794 9.08874H81.6639V14.4558H80.8188V11.4008L80.9017 10.2942H80.8794L80.3404 11.3019L78.2867 14.4558H77.5022L77.4959 9.08555Z" fill="black"/>
<path d="M28.5384 23.4552C28.1577 23.4627 27.7802 23.3831 27.435 23.2224C27.1206 23.0733 26.8437 22.8553 26.625 22.5846L27.215 22.0392C27.3683 22.2395 27.5616 22.4057 27.7826 22.5272C28.0163 22.6466 28.2761 22.7058 28.5384 22.6994C28.8246 22.717 29.1094 22.6469 29.3548 22.4985C29.4497 22.4292 29.5255 22.337 29.5752 22.2305C29.6248 22.124 29.6466 22.0066 29.6386 21.8894V21.8033C29.6445 21.6965 29.6263 21.5898 29.5855 21.491C29.5447 21.3922 29.4822 21.3039 29.4026 21.2324C29.1846 21.0812 28.9209 21.0102 28.6564 21.0315H27.7922V20.247H28.6086C28.8586 20.2674 29.1075 20.1972 29.3101 20.0493C29.3878 19.973 29.448 19.8807 29.4865 19.7789C29.5251 19.677 29.5411 19.568 29.5334 19.4594V19.3796C29.5386 19.279 29.52 19.1786 29.479 19.0866C29.438 18.9946 29.3757 18.9136 29.2974 18.8503C29.0865 18.7137 28.8368 18.6499 28.5862 18.6685C28.3369 18.6618 28.0897 18.7154 27.8655 18.8247C27.6718 18.9199 27.5026 19.0585 27.3712 19.2297L26.7844 18.7323C26.9884 18.4765 27.2451 18.2676 27.5371 18.12C27.8669 17.9653 28.2284 17.8899 28.5926 17.8999C29.0865 17.8663 29.5767 18.0049 29.9798 18.2922C30.1361 18.4185 30.2603 18.58 30.3423 18.7634C30.4243 18.9468 30.4618 19.1471 30.4518 19.3477C30.4622 19.5014 30.4413 19.6555 30.3904 19.8008C30.3394 19.946 30.2594 20.0794 30.1552 20.1928C29.9464 20.3873 29.6823 20.5121 29.3994 20.55V20.5883C29.5518 20.602 29.7012 20.6386 29.8427 20.6967C29.9805 20.7503 30.107 20.8293 30.2158 20.9295C30.3262 21.0339 30.4141 21.1598 30.4741 21.2994C30.5415 21.4642 30.5741 21.6412 30.5698 21.8192C30.5718 22.0469 30.5239 22.2722 30.4295 22.4793C30.3382 22.68 30.2018 22.8568 30.0308 22.9959C29.8409 23.1425 29.6243 23.2508 29.393 23.3148C29.1167 23.4039 28.8287 23.4512 28.5384 23.4552Z" fill="black"/>
<path d="M31.0896 22.591H31.6572C31.7692 22.4511 31.8635 22.2979 31.9379 22.1349C32.0313 21.9301 32.104 21.7164 32.1547 21.4971C32.2189 21.2264 32.2637 20.9515 32.2887 20.6744C32.3226 20.3193 32.3385 19.9627 32.3365 19.6061V17.9988H35.8444V22.591H36.6448V24.5043H35.838V23.3627H31.8836V24.5139H31.0896V22.591ZM34.9674 22.591V18.7642H33.1624V19.7209C33.1624 20.1035 33.1624 20.4448 33.1274 20.7445C33.1071 21.0087 33.073 21.2716 33.0253 21.5322C32.9899 21.7343 32.9366 21.9328 32.8659 22.1254C32.8087 22.2776 32.7349 22.4231 32.6458 22.5591V22.5878L34.9674 22.591Z" fill="black"/>
<path d="M37.5154 23.3627V17.9988H39.8211C40.0333 17.9849 40.246 18.0163 40.445 18.0911C40.6441 18.1659 40.8249 18.2823 40.9755 18.4325C41.2377 18.7687 41.3801 19.1829 41.3801 19.6092C41.3801 20.0356 41.2377 20.4498 40.9755 20.786C40.8249 20.9363 40.6441 21.0529 40.4451 21.1282C40.2461 21.2035 40.0334 21.2358 39.8211 21.2229H38.3828V23.3627H37.5154ZM38.3828 20.4543H39.7668C39.9549 20.466 40.1401 20.4043 40.2835 20.2821C40.3474 20.2181 40.3969 20.1411 40.4288 20.0565C40.4607 19.9718 40.4742 19.8813 40.4684 19.791V19.4243C40.4742 19.334 40.4607 19.2435 40.4288 19.1588C40.3969 19.0742 40.3474 18.9972 40.2835 18.9332C40.1401 18.811 39.9549 18.7493 39.7668 18.761H38.3828V20.4543Z" fill="black"/>
<path d="M45.2519 23.3627L44.7672 21.9085H42.7613L42.2925 23.3627H41.406L43.2365 17.9988H44.3303L46.1608 23.3691L45.2519 23.3627ZM43.7818 18.7929H43.7435L42.9686 21.1623H44.5631L43.7818 18.7929Z" fill="black"/>
<path d="M46.9899 17.9988H49.3657C49.5574 17.9878 49.7493 18.0154 49.9301 18.08C50.1109 18.1447 50.2769 18.245 50.4181 18.3751C50.5465 18.5085 50.6464 18.6666 50.7117 18.8399C50.7769 19.0131 50.8062 19.1979 50.7976 19.3828C50.8012 19.5576 50.7731 19.7315 50.7147 19.8962C50.6648 20.0237 50.5913 20.1406 50.4978 20.2407C50.4133 20.3282 50.3111 20.3967 50.1981 20.4416C50.096 20.4831 49.9887 20.5099 49.8792 20.5213V20.55C50.0015 20.5562 50.1221 20.5821 50.2363 20.6265C50.3725 20.6738 50.4973 20.7487 50.6031 20.8466C50.7218 20.9543 50.8182 21.0843 50.8869 21.2292C50.9684 21.4094 51.0076 21.6057 51.0017 21.8033C51.0025 22.0096 50.968 22.2145 50.8996 22.4092C50.8351 22.5908 50.7366 22.7586 50.6094 22.9035C50.487 23.0384 50.3383 23.1469 50.1725 23.2224C49.999 23.304 49.8094 23.3454 49.6177 23.3436H47.0027L46.9899 17.9988ZM47.8605 20.2694H49.2063C49.3882 20.2797 49.5672 20.2204 49.7069 20.1035C49.7681 20.0412 49.8153 19.9666 49.8455 19.8847C49.8757 19.8028 49.8883 19.7155 49.8823 19.6284V19.3828C49.888 19.2962 49.8753 19.2094 49.8451 19.1281C49.8149 19.0467 49.7678 18.9727 49.7069 18.9109C49.568 18.7926 49.3884 18.7331 49.2063 18.745H47.8605V20.2694ZM47.8605 22.6228H49.353C49.5458 22.6334 49.7353 22.5695 49.8823 22.4443C49.9485 22.3782 49.9997 22.2988 50.0327 22.2114C50.0657 22.1239 50.0797 22.0305 50.0737 21.9372V21.6757C50.0797 21.5824 50.0657 21.489 50.0327 21.4015C49.9997 21.3141 49.9485 21.2347 49.8823 21.1687C49.7353 21.0434 49.5458 20.9795 49.353 20.9901H47.8605V22.6228Z" fill="black"/>
<path d="M54.1365 23.4552C53.8085 23.4608 53.4828 23.3989 53.1798 23.2734C52.9003 23.1547 52.6524 22.9723 52.4559 22.7408C52.2408 22.4875 52.0811 22.1921 51.9871 21.8734C51.7659 21.0915 51.7659 20.2636 51.9871 19.4817C52.0805 19.1618 52.2402 18.8651 52.4559 18.6111C52.6552 18.3807 52.9052 18.1995 53.1861 18.0817C53.8002 17.8358 54.4854 17.8358 55.0995 18.0817C55.38 18.2003 55.6298 18.3814 55.8298 18.6111C56.0375 18.868 56.1915 19.1641 56.2827 19.4817C56.5038 20.2636 56.5038 21.0915 56.2827 21.8734C56.186 22.191 56.0266 22.486 55.8139 22.7408C55.6149 22.9724 55.3649 23.1547 55.0836 23.2734C54.7834 23.3973 54.4612 23.4592 54.1365 23.4552ZM54.1365 22.6834C54.33 22.686 54.5221 22.6491 54.7009 22.575C54.8706 22.5047 55.0214 22.3955 55.141 22.2561C55.2666 22.1106 55.362 21.9414 55.4216 21.7586C55.4912 21.5445 55.5246 21.3204 55.5205 21.0953V20.2534C55.5242 20.0294 55.4908 19.8064 55.4216 19.5933C55.3614 19.4098 55.2661 19.2398 55.141 19.0926C55.0196 18.9552 54.8693 18.8463 54.7009 18.7737C54.3363 18.6292 53.9303 18.6292 53.5656 18.7737C53.3996 18.8473 53.2516 18.9561 53.1319 19.0926C53.0058 19.239 52.9103 19.4093 52.8513 19.5933C52.7818 19.8074 52.7484 20.0315 52.7524 20.2566V21.1049C52.7484 21.3299 52.7818 21.5541 52.8513 21.7682C52.9096 21.9516 53.0051 22.1209 53.1319 22.2657C53.2498 22.4041 53.3983 22.5133 53.5656 22.5846C53.7471 22.6563 53.9414 22.69 54.1365 22.6834Z" fill="black"/>
<path d="M59.612 23.4552C59.284 23.4602 58.9585 23.3983 58.6553 23.2734C58.3739 23.1547 58.1239 22.9724 57.925 22.7408C57.7112 22.4867 57.5516 22.1915 57.4562 21.8734C57.2351 21.0915 57.2351 20.2636 57.4562 19.4817C57.5509 19.1623 57.7105 18.8659 57.925 18.6111C58.125 18.3814 58.3748 18.2003 58.6553 18.0817C59.2694 17.8358 59.9546 17.8358 60.5687 18.0817C60.8496 18.1995 61.0996 18.3807 61.2989 18.6111C61.5146 18.8651 61.6743 19.1618 61.7677 19.4817C61.9889 20.2636 61.9889 21.0915 61.7677 21.8734C61.6737 22.1921 61.514 22.4875 61.2989 22.7408C61.1006 22.9731 60.8505 23.1556 60.5687 23.2734C60.2655 23.3986 59.9399 23.4605 59.612 23.4552ZM59.612 22.6834C59.8056 22.6863 59.9977 22.6494 60.1764 22.575C60.3461 22.5047 60.4969 22.3955 60.6165 22.2561C60.7433 22.1114 60.8389 21.942 60.8971 21.7586C60.9667 21.5445 61.0001 21.3204 60.996 21.0953V20.2534C61.0001 20.0284 60.9667 19.8042 60.8971 19.5901C60.8381 19.4061 60.7427 19.2358 60.6165 19.0894C60.4951 18.952 60.3448 18.8431 60.1764 18.7705C59.8129 18.6259 59.4078 18.6259 59.0443 18.7705C58.8776 18.8444 58.7286 18.9531 58.6074 19.0894C58.4824 19.2366 58.3871 19.4066 58.3268 19.5901C58.2573 19.8042 58.2239 20.0284 58.2279 20.2534V21.1017C58.2239 21.3267 58.2573 21.5509 58.3268 21.765C58.3864 21.9478 58.4818 22.1169 58.6074 22.2625C58.7265 22.4011 58.876 22.5102 59.0443 22.5814C59.2245 22.6542 59.4177 22.6889 59.612 22.6834Z" fill="black"/>
<path d="M66.9435 23.3627H65.9198L64.6187 21.2229H64.5964L63.3208 23.3627H62.3641L64.1021 20.6138L62.4119 17.9988H63.4356L64.657 19.9983H64.6729L65.9134 17.9988H66.8701L65.1768 20.6138L66.9435 23.3627Z" fill="black"/>
<path d="M67.763 23.3627V17.9988H70.0687C70.2813 17.9857 70.4944 18.0182 70.6934 18.0941C70.8925 18.17 71.0731 18.2875 71.2231 18.4389C71.4853 18.7751 71.6277 19.1892 71.6277 19.6156C71.6277 20.042 71.4853 20.4562 71.2231 20.7924C71.0725 20.9426 70.8917 21.0593 70.6927 21.1346C70.4937 21.2099 70.2811 21.2422 70.0687 21.2292H68.6304V23.3691L67.763 23.3627ZM68.6304 20.4543H70.0177C70.2046 20.4655 70.3887 20.4038 70.5311 20.2821C70.595 20.2181 70.6445 20.1411 70.6764 20.0565C70.7083 19.9718 70.7218 19.8813 70.716 19.791V19.4243C70.7218 19.334 70.7083 19.2435 70.6764 19.1588C70.6445 19.0741 70.595 18.9972 70.5311 18.9332C70.3887 18.8115 70.2046 18.7498 70.0177 18.761H68.6304V20.4543Z" fill="black"/>
<path d="M75.5027 23.3627L75.018 21.9085H73.0121L72.5465 23.3627H71.66L73.5032 17.9988H74.5971L76.4275 23.3691L75.5027 23.3627ZM74.0358 18.7929H73.9943L73.2194 21.1623H74.8139L74.0358 18.7929Z" fill="black"/>
<path d="M80.5413 21.022H78.1113V23.3627H77.2407V17.9988H78.1113V20.2598H80.5413V17.9988H81.4119V23.3627H80.5413V21.022Z" fill="black"/>
<path d="M82.7322 23.3627V17.9988H86.1699V18.7673H83.6028V20.2598H85.9403V21.0283H83.6091V22.591H86.1763V23.3627H82.7322Z" fill="black"/>
<path d="M90.593 21.022H88.1726V23.3627H87.3052V17.9988H88.1726V20.2598H90.6026V17.9988H91.4732V23.3627H90.6026L90.593 21.022Z" fill="black"/>
<path d="M92.7871 17.9988H93.6322V21.0539L93.5461 22.1445H93.5716L94.1105 21.1527L96.1706 17.9988H96.9551V23.3627H96.11V20.3076L96.1929 19.201H96.1706L95.6317 20.1928L93.5716 23.3627H92.7871V17.9988Z" fill="black"/>
<path d="M97.9309 22.591H98.3997L98.9705 21.5609C99.0253 21.4502 99.0974 21.349 99.1842 21.2611C99.2759 21.1853 99.3858 21.1347 99.5031 21.1144V21.0762C99.3123 21.0781 99.1231 21.0406 98.9475 20.966C98.7719 20.8914 98.6136 20.7812 98.4826 20.6425C98.2406 20.3478 98.1157 19.9743 98.1318 19.5933C98.1194 19.3792 98.1493 19.1648 98.2199 18.9623C98.2905 18.7599 98.4004 18.5733 98.5432 18.4134C98.6945 18.2691 98.8741 18.1577 99.0706 18.0864C99.2671 18.015 99.4763 17.9852 99.6849 17.9988H102V23.3627H101.133V21.1878H100.154L99.248 22.8014C99.1618 22.9729 99.0374 23.1224 98.8844 23.2383C98.7544 23.3154 98.6051 23.3541 98.4539 23.3499H97.9309V22.591ZM101.12 20.4607V18.761H99.7423C99.5534 18.7498 99.3673 18.8114 99.2225 18.9332C99.1576 18.9973 99.1072 19.0746 99.0747 19.1599C99.0423 19.2452 99.0285 19.3364 99.0343 19.4275V19.7942C99.0285 19.8853 99.0423 19.9765 99.0747 20.0618C99.1072 20.147 99.1576 20.2244 99.2225 20.2885C99.3673 20.4103 99.5534 20.4719 99.7423 20.4607H101.12Z" fill="black"/>
<path d="M27.03 26.8993H27.8783V29.9512L27.7922 31.0609H27.8145L28.3534 30.0691L30.4135 26.8993H31.198V32.2664H30.3529V29.2145L30.439 28.1079H30.4135L29.8778 29.0997L27.8145 32.2664H27.03V26.8993Z" fill="black"/>
<path d="M38.4434 28.1589H38.4051L37.9842 29.0295L36.8075 31.1757L35.6307 29.0295L35.2066 28.1589H35.1683V32.2664H34.3392V26.8993H35.3692L36.8075 29.6291H36.8521L38.2903 26.8993H39.2757V32.2664H38.4434V28.1589Z" fill="black"/>
<path d="M40.5992 32.2664V26.8993H44.0369V27.6678H41.4666V29.1603H43.7977V29.9288H41.4666V31.4978H44.0369V32.2664H40.5992Z" fill="black"/>
<path d="M44.5982 31.4978H45.169C45.2788 31.3564 45.3729 31.2035 45.4496 31.0418C45.5422 30.837 45.6138 30.6233 45.6633 30.404C45.7296 30.1337 45.7744 29.8586 45.7972 29.5812C45.8312 29.2272 45.8472 28.8717 45.8451 28.5161V26.8865H49.353V31.4851H50.1534V33.3985H49.3466V32.244H45.405V33.3985H44.5982V31.4978ZM48.476 31.4978V27.671H46.6838V28.6277C46.6838 29.0136 46.6838 29.3548 46.6487 29.6514C46.6302 29.9168 46.5961 30.1809 46.5467 30.4423C46.5117 30.6434 46.4583 30.8409 46.3872 31.0322C46.3314 31.1851 46.2576 31.3307 46.1672 31.4659V31.4978H48.476Z" fill="black"/>
<path d="M51.0368 26.8993H51.8818V29.9512L51.7989 31.0609H51.8181L52.357 30.0691L54.4171 26.8993H55.2016V32.2664H54.3693V29.2145L54.4522 28.1079H54.4298L53.8909 29.0997L51.8181 32.2664H51.0336L51.0368 26.8993Z" fill="black"/>
<path d="M60.575 32.2664H56.5282V26.8993H57.3956V31.4978H59.7108V26.8993H60.5814V31.4978H61.385V33.4112H60.5782L60.575 32.2664Z" fill="black"/>
<path d="M62.2748 26.8993H63.1199V29.9512L63.0338 31.0609H63.0593L63.595 30.0691L65.6583 26.8993H66.4428V32.2664H65.5977V29.2145L65.6806 28.1079H65.6583L65.1194 29.0997L63.0593 32.2664H62.2748V26.8993Z" fill="black"/>
<path d="M71.0636 29.9288H68.6336V32.2664H67.763V26.8993H68.6304V29.1603H71.0605V26.8993H71.9311V32.2664H71.0605L71.0636 29.9288Z" fill="black"/>
<path d="M75.2731 32.3493C74.9612 32.3653 74.6498 32.3095 74.3629 32.1862C74.0759 32.0629 73.8211 31.8754 73.618 31.6381C73.2205 31.1662 73.0206 30.4784 73.0185 29.5748C73.012 29.172 73.0636 28.7703 73.1716 28.3822C73.2602 28.0648 73.412 27.7687 73.618 27.5116C73.8077 27.2782 74.0519 27.0953 74.3292 26.979C74.6319 26.8523 74.9578 26.7904 75.2859 26.7972C75.698 26.7834 76.1055 26.8885 76.4594 27.1002C76.7887 27.3239 77.0458 27.6386 77.1993 28.0059L76.469 28.4045C76.3878 28.1638 76.2395 27.9514 76.0417 27.7922C75.8227 27.6332 75.5562 27.5533 75.2859 27.5658C75.1011 27.5571 74.9169 27.5908 74.7472 27.6643C74.5775 27.7378 74.4269 27.8492 74.3068 27.9899C74.0538 28.327 73.9284 28.7427 73.9529 29.1635V29.983C73.9282 30.4038 74.0536 30.8197 74.3068 31.1566C74.531 31.3935 74.833 31.5416 75.1575 31.5738C75.482 31.606 75.8072 31.5202 76.0736 31.332C76.2767 31.1624 76.4317 30.9425 76.5232 30.6942L77.2216 31.1183C77.0598 31.486 76.7993 31.8017 76.469 32.0304C76.1121 32.256 75.6949 32.3672 75.2731 32.3493Z" fill="black"/>
<path d="M78.1337 26.8993H79.0042V29.1603H79.9322L80.8889 27.4892C80.9778 27.3131 81.1054 27.1594 81.2621 27.0396C81.4052 26.9471 81.5732 26.9003 81.7436 26.9057H82.1518V27.6742H81.6671L80.8985 29.0263C80.8322 29.1429 80.7507 29.2501 80.6561 29.3452C80.5759 29.4142 80.4827 29.4662 80.3819 29.4983V29.5366C80.4961 29.5575 80.6047 29.6021 80.7008 29.6673C80.8145 29.7591 80.907 29.8744 80.9719 30.0054L81.8233 31.501H82.2921V32.2696H81.7627C81.6078 32.2739 81.4553 32.2305 81.3258 32.1452C81.1705 32.0235 81.0442 31.8688 80.9559 31.6923L79.9386 29.9256H79.0106V32.2696H78.14L78.1337 26.8993Z" fill="black"/>
<path d="M85.1622 32.3493C84.8345 32.3544 84.5092 32.2937 84.2055 32.1707C83.9234 32.0518 83.6724 31.8695 83.472 31.6381C83.2593 31.3833 83.0999 31.0883 83.0032 30.7707C82.7857 29.9883 82.7857 29.1614 83.0032 28.379C83.0992 28.0601 83.2586 27.764 83.472 27.5084C83.6717 27.2769 83.9229 27.0956 84.2055 26.979C84.8191 26.7308 85.5052 26.7308 86.1189 26.979C86.401 27.0947 86.6514 27.2762 86.8492 27.5084C87.0647 27.763 87.2254 28.0594 87.3211 28.379C87.5387 29.1614 87.5387 29.9883 87.3211 30.7707C87.2247 31.089 87.0641 31.3842 86.8492 31.6381C86.6506 31.8702 86.4005 32.0526 86.1189 32.1707C85.8151 32.2936 85.4898 32.3543 85.1622 32.3493ZM85.1622 31.5807C85.3568 31.5836 85.55 31.5467 85.7298 31.4723C85.8986 31.402 86.0483 31.2927 86.1667 31.1534C86.2922 31.0078 86.3876 30.8387 86.4474 30.6559C86.5177 30.442 86.5522 30.2178 86.5494 29.9926V29.1603C86.552 28.9351 86.5175 28.711 86.4474 28.497C86.3876 28.3142 86.2922 28.1451 86.1667 27.9995C86.0474 27.8612 85.8979 27.7521 85.7298 27.6806C85.3652 27.536 84.9592 27.536 84.5945 27.6806C84.4274 27.7521 84.279 27.8613 84.1609 27.9995C84.0353 28.1451 83.94 28.3142 83.8802 28.497C83.8101 28.711 83.7756 28.9351 83.7782 29.1603V30.0117C83.7753 30.237 83.8098 30.4611 83.8802 30.6751C83.94 30.8578 84.0353 31.0269 84.1609 31.1725C84.2781 31.3117 84.4267 31.421 84.5945 31.4914C84.775 31.5629 84.9682 31.5965 85.1622 31.5903V31.5807Z" fill="black"/>
<path d="M88.5648 26.8993H91.5848V27.6678H89.4482V32.2664H88.5808L88.5648 26.8993Z" fill="black"/>
<path d="M94.2923 32.3493C93.9647 32.3537 93.6395 32.293 93.3356 32.1707C93.0549 32.0508 92.8052 31.8687 92.6053 31.6381C92.3926 31.3833 92.2332 31.0883 92.1365 30.7707C91.9154 29.9888 91.9154 29.1609 92.1365 28.379C92.2325 28.0601 92.3919 27.764 92.6053 27.5084C92.8045 27.2778 93.0545 27.0965 93.3356 26.979C93.9497 26.7331 94.6349 26.7331 95.249 26.979C95.5311 27.0948 95.7815 27.2763 95.9793 27.5084C96.1949 27.7624 96.3547 28.0591 96.448 28.379C96.6692 29.1609 96.6692 29.9888 96.448 30.7707C96.354 31.0894 96.1943 31.3848 95.9793 31.6381C95.7807 31.8702 95.5306 32.0526 95.249 32.1707C94.9452 32.2936 94.6199 32.3543 94.2923 32.3493ZM94.2923 31.5807C94.4869 31.5836 94.6801 31.5467 94.8599 31.4723C95.0287 31.402 95.1784 31.2927 95.2968 31.1534C95.4223 31.0078 95.5177 30.8387 95.5774 30.6559C95.6478 30.442 95.6823 30.2178 95.6795 29.9926V29.1603C95.6821 28.9351 95.6476 28.711 95.5774 28.497C95.5177 28.3142 95.4223 28.1451 95.2968 27.9995C95.1775 27.8612 95.028 27.7521 94.8599 27.6806C94.6801 27.6062 94.4869 27.5693 94.2923 27.5722C94.0976 27.5687 93.9043 27.6056 93.7246 27.6806C93.5575 27.7521 93.4091 27.8613 93.2909 27.9995C93.1643 28.1443 93.0688 28.3137 93.0103 28.497C92.9402 28.711 92.9057 28.9351 92.9083 29.1603V30.0117C92.9054 30.237 92.9399 30.4611 93.0103 30.6751C93.0688 30.8584 93.1643 31.0277 93.2909 31.1725C93.4082 31.3117 93.5568 31.421 93.7246 31.4914C93.905 31.5631 94.0983 31.5968 94.2923 31.5903V31.5807Z" fill="black"/>
<path d="M31.1374 37.0658H31.0896L30.6686 37.9364L29.4951 40.0826L28.3152 37.9364L27.9006 37.0658H27.8623V41.1732H27.03V35.8061H28.06L29.4951 38.5359H29.5397L30.978 35.8061H31.9634V41.1732H31.131L31.1374 37.0658Z" fill="black"/>
<path d="M33.2932 41.1732V35.8061H36.7309V36.5747H34.1606V38.0671H36.4917V38.8357H34.1606V40.4047H36.7309V41.1732H33.2932Z" fill="black"/>
<path d="M41.1509 38.8357H38.7209V41.1732H37.8535V35.8061H38.7209V38.0671H41.1509V35.8061H42.0215V41.1732H41.1509V38.8357Z" fill="black"/>
<path d="M43.3449 41.1732V35.8061H46.7826V36.5747H44.2123V38.0671H46.5435V38.8357H44.2123V40.4047H46.7826V41.1732H43.3449Z" fill="black"/>
<path d="M47.3535 40.4047H47.9243C48.0348 40.2626 48.1289 40.1086 48.2049 39.9455C48.2972 39.746 48.3688 39.5377 48.4186 39.3236C48.4843 39.0532 48.5291 38.7781 48.5525 38.5008C48.5865 38.1468 48.6024 37.7913 48.6004 37.4357V35.8061H52.1083V40.4047H52.9087V42.3181H52.1019V41.1637H48.1507V42.3181H47.3535V40.4047ZM51.2313 40.4047V36.5779H49.4391V37.5346C49.4391 37.9204 49.4391 38.2617 49.404 38.5582C49.3855 38.8226 49.3514 39.0856 49.3019 39.3459C49.2674 39.5482 49.214 39.7468 49.1425 39.9391C49.086 40.0916 49.0122 40.2371 48.9225 40.3728V40.4047H51.2313Z" fill="black"/>
<path d="M53.4445 40.4047H53.9196L54.6499 38.9601C54.7118 38.8242 54.7983 38.7009 54.905 38.5965C54.9955 38.5176 55.1057 38.4647 55.2239 38.4434V38.4084C55.1175 38.3721 55.019 38.3158 54.9337 38.2425C54.8306 38.1496 54.749 38.0353 54.6945 37.9077L54.0504 36.5747H53.572V35.8061H53.9961C54.1703 35.7995 54.3424 35.845 54.4904 35.9369C54.6503 36.0514 54.7751 36.2082 54.8508 36.3897L55.6417 38.0671H56.4867V35.8061H57.3573V38.0671H58.2024L58.9965 36.3897C59.07 36.2079 59.1939 36.0507 59.3537 35.9369C59.5017 35.845 59.6738 35.7995 59.8479 35.8061H60.2721V36.5747H59.7906L59.1687 37.9045C59.1134 38.0317 59.0319 38.1458 58.9295 38.2393C58.8443 38.3127 58.7458 38.3689 58.6393 38.4052V38.4434C58.7575 38.4647 58.8677 38.5176 58.9582 38.5965C59.0649 38.7009 59.1514 38.8242 59.2133 38.9601L59.9436 40.4047H60.4283V41.1732H59.8894C59.7327 41.1802 59.578 41.1354 59.4493 41.0457C59.299 40.9162 59.1792 40.755 59.0985 40.5737L58.2216 38.8293H57.3669V41.1732H56.4963V38.8293H55.6449L54.7679 40.5737C54.6873 40.755 54.5675 40.9162 54.4171 41.0457C54.2884 41.1354 54.1337 41.1802 53.977 41.1732H53.4445V40.4047Z" fill="black"/>
<path d="M65.5116 37.0658H65.4733L65.0492 37.9364L63.8725 40.0826L62.6957 37.9364L62.2748 37.0658H62.2365V41.1732H61.4042V35.8061H62.4342L63.8725 38.5359H63.9362L65.3745 35.8061H66.3599V41.1732H65.5276L65.5116 37.0658Z" fill="black"/>
<path d="M67.6642 41.1732V35.8061H71.1051V36.5747H68.5348V38.0671H70.8659V38.8357H68.5348V40.4047H71.1051V41.1732H67.6642Z" fill="black"/>
<path d="M75.525 38.8357H73.095V41.1732H72.2276V35.8061H73.095V38.0671H75.525V35.8061H76.3956V41.1732H75.525V38.8357Z" fill="black"/>
<path d="M79.709 36.5747V41.1732H78.8416V36.5747H77.2471V35.8061H81.3163V36.5747H79.709Z" fill="black"/>
<path d="M85.0091 41.1732L84.5244 39.719H82.5185L82.0497 41.1732H81.1568L82.9873 35.8061H84.0811L85.9116 41.1732H85.0091ZM83.5422 36.6034H83.5007L82.7258 38.9728H84.3203L83.5422 36.6034Z" fill="black"/>
</svg>
