<svg width="14" height="14" viewBox="0 0 14 14" fill="none" xmlns="http://www.w3.org/2000/svg">
<path fill-rule="evenodd" clip-rule="evenodd" d="M9.01966 9.7268C6.85884 11.5304 3.63961 11.4178 1.61091 9.38909C-0.536971 7.2412 -0.536971 3.7588 1.61091 1.61091C3.7588 -0.536971 7.2412 -0.536971 9.38909 1.61091C11.4178 3.63962 11.5304 6.85888 9.72677 9.0197L13.2781 12.5711L12.571 13.2782L9.01966 9.7268ZM8.67216 8.69177L8.69177 8.67216C10.4393 6.91402 10.4361 4.07211 8.68198 2.31802C6.92462 0.56066 4.07538 0.56066 2.31802 2.31802C0.56066 4.07538 0.56066 6.92462 2.31802 8.68198C4.07211 10.4361 6.91402 10.4393 8.67216 8.69177Z" fill="#645D5D"/>
</svg>
